<svg width="27" height="27" viewBox="0 0 27 27" fill="none" xmlns="http://www.w3.org/2000/svg">
<path d="M26.8718 24.9481L18.7505 16.8889C20.2136 15.0519 21.0197 12.8 21.0197 10.4296C21.0197 7.64444 19.915 5.03704 17.9444 3.05185C15.9439 1.0963 13.3165 0 10.5099 0C7.70325 0 5.07578 1.0963 3.07533 3.05185C1.10473 5.00741 0 7.64444 0 10.4296C0 13.2148 1.10473 15.8222 3.07533 17.8074C5.04593 19.763 7.70325 20.8593 10.5099 20.8593C12.8985 20.8593 15.1676 20.0593 17.0188 18.6074L25.1401 26.6667L26.8718 24.9481ZM4.80707 16.0889C1.67202 12.9778 1.67202 7.88148 4.80707 4.77037C6.3298 3.25926 8.36011 2.42963 10.5099 2.42963C12.6596 2.42963 14.6899 3.25926 16.2127 4.77037C19.3477 7.88148 19.3477 12.9778 16.2127 16.0889C14.6899 17.6 12.6596 18.4296 10.5099 18.4296C8.36011 18.4296 6.3298 17.6 4.80707 16.0889Z" fill="#2A2D36"/>
</svg>
